<?xml version="1.0" standalone="no"?><!DOCTYPE svg PUBLIC "-//W3C//DTD SVG 1.1//EN" "http://www.w3.org/Graphics/SVG/1.1/DTD/svg11.dtd"><svg t="1524019944588" class="icon" style="" viewBox="0 0 1024 1024" version="1.1" xmlns="http://www.w3.org/2000/svg" p-id="672" xmlns:xlink="http://www.w3.org/1999/xlink" width="200" height="200"><defs><style type="text/css"></style></defs><path d="M512 213.33c198.54 0 374.46 116.53 446.38 290.52a21.33 21.33 0 0 1 0 16.3C886.46 694.14 710.54 810.67 512 810.67S137.54 694.14 65.62 520.15a21.33 21.33 0 0 1 0-16.3C137.54 329.86 313.46 213.33 512 213.33z m0 42.67c-178.21 0-336.1 102.55-403.48 256C175.9 665.45 333.79 768 512 768s336.1-102.55 403.48-256C848.1 358.55 690.21 256 512 256z" p-id="673"></path><path d="M512 661.33A149.33 149.33 0 1 1 661.33 512 149.33 149.33 0 0 1 512 661.33z m0-42.67A106.67 106.67 0 1 0 405.33 512 106.67 106.67 0 0 0 512 618.67z" p-id="674"></path></svg>